<svg xmlns="http://www.w3.org/2000/svg" xmlns:xlink="http://www.w3.org/1999/xlink" preserveAspectRatio="xMidYMid" width="124" height="135" viewBox="0 0 124 135">
  <defs>
    <style>
      .cls-1 {
        fill: #fff;
        filter: url(#drop-shadow-1);
        fill-rule: evenodd;
      }
    </style>

    <filter id="drop-shadow-1" filterUnits="userSpaceOnUse">
      <feOffset dy="5" in="SourceAlpha"/>
      <feGaussianBlur stdDeviation="2.236" result="dropBlur"/>
      <feFlood flood-opacity="0.19"/>
      <feComposite operator="in" in2="dropBlur" result="dropShadowComp"/>
      <feComposite in="SourceGraphic" result="shadowed"/>
    </filter>
  </defs>
  <path d="M76.338,9.991 C87.869,15.892 96.179,20.537 106.956,26.522 C117.386,31.717 119.507,38.091 119.483,51.204 C119.484,63.091 119.519,72.278 119.483,85.663 C119.527,99.034 116.867,101.233 106.267,108.156 C96.359,113.921 87.601,118.961 76.338,125.286 C66.457,131.696 58.119,131.434 49.104,125.286 C38.093,119.312 30.142,114.738 19.175,108.156 C8.580,101.687 4.719,96.745 4.533,84.073 C4.563,71.983 4.435,63.324 4.533,51.204 C4.496,38.779 8.745,32.170 19.175,27.122 C30.371,20.078 38.093,15.644 49.104,9.991 C61.217,3.349 64.293,3.299 76.338,9.991 Z" class="cls-1"/>
</svg>
